<?xml version="1.0" encoding="UTF-8"?>
<svg width="972px" height="324px" viewBox="0 0 972 324" version="1.1" xmlns="http://www.w3.org/2000/svg" xmlns:xlink="http://www.w3.org/1999/xlink">
    <!-- Generator: Sketch 3.8.3 (29802) - http://www.bohemiancoding.com/sketch -->
    <title>idea-process</title>
    <desc>Created with Sketch.</desc>
    <defs>
        <polygon id="path-1" points="0 324 971.312 324 971.312 0.375 0 0.375"></polygon>
    </defs>
    <g id="Page-1" stroke="none" stroke-width="1" fill="none" fill-rule="evenodd">
        <g id="Artboard-1" transform="translate(-131.000000, -254.000000)">
            <g id="idea-process" transform="translate(131.000000, 253.000000)">
                <polyline id="Stroke-1" stroke="#231F1F" stroke-width="4.5" stroke-linejoin="round" points="14.9074 134.72 64.4074 85.22 87.6254 108.438 143.8754 52.188"></polyline>
                <polyline id="Stroke-2" stroke="#231F1F" stroke-width="4" stroke-linejoin="round" points="132.3124 52.625 144.3124 52.625 144.3124 63.625"></polyline>
                <polygon id="Fill-3" fill="#FFCD28" points="203.74 206.136 253.65 206.136 253.65 55.33 203.74 55.33"></polygon>
                <g id="Group-177" transform="translate(0.000000, 0.625000)">
                    <path d="M325.0739,166.7873 L343.7919,166.7873 C361.8609,166.7873 373.4789,152.5883 373.4789,130.4303 C373.4789,108.0573 360.7859,93.4283 341.4229,93.4283 L325.0739,93.4283 L325.0739,166.7873 L325.0739,166.7873 Z M342.5009,54.7053 C392.1949,54.7053 424.4639,84.1773 424.4639,129.9993 C424.4639,175.8223 391.5499,205.5103 340.5629,205.5103 L275.1629,205.5103 L275.1629,54.7053 L342.5009,54.7053 L342.5009,54.7053 Z" id="Fill-4" fill="#FFCD28"></path>
                    <polygon id="Fill-6" fill="#FFCD28" points="488.3607 92.5666 488.3607 111.0676 558.9237 111.0676 558.9237 148.9306 488.3607 148.9306 488.3607 167.6486 567.9587 167.6486 567.9587 205.5106 438.4507 205.5106 438.4507 54.7046 566.0237 54.7046 566.0237 92.5666"></polygon>
                    <path d="M661.76,104.3981 L645.84,148.5021 L677.249,148.5021 L661.76,104.3981 Z M632.932,184.2131 L625.187,205.5101 L573.987,205.5101 L637.665,54.7051 L688.865,54.7051 L750.178,205.5101 L697.041,205.5101 L689.511,184.2131 L632.932,184.2131 Z" id="Fill-8" fill="#FFCD28"></path>
                    <polygon id="Fill-10" fill="#C8CBCC" points="687.9398 53.9914 692.6388 76.1924 697.9418 70.8884 707.4878 80.4344 714.9118 73.0114 705.3668 63.4634 710.1398 58.6904"></polygon>
                    <path d="M681.3124,53 L590.3124,53" id="Stroke-12" stroke="#231F1F" stroke-width="4" stroke-linejoin="round"></path>
                    <path d="M446.0624,31.5003 C446.0624,14.3103 432.2524,0.3753 415.0624,0.3753 C397.8724,0.3753 383.9994,14.3103 383.9994,31.5003 C383.9994,44.8593 392.3124,56.2183 404.3124,60.6333 L404.3124,71.0003 L426.3124,71.0003 L426.3124,60.3593 C438.3124,55.7503 446.0624,44.5773 446.0624,31.5003" id="Fill-14" fill="#C8CBCC"></path>
                    <mask id="mask-2" fill="white">
                        <use xlink:href="#path-1"></use>
                    </mask>
                    <g id="Clip-17"></g>
                    <polygon id="Stroke-16" stroke="#231F1F" stroke-width="4" stroke-linejoin="round" mask="url(#mask-2)" points="403.312 85 426.312 85 426.312 71 403.312 71"></polygon>
                    <path d="M415.3124,72 L415.3124,32" id="Stroke-18" stroke="#231F1F" stroke-width="4" stroke-linejoin="round" mask="url(#mask-2)"></path>
                    <path d="M421.1874,26.1888 C421.1874,29.1228 418.8084,31.4998 415.8744,31.4998 C412.9404,31.4998 410.5614,29.1228 410.5614,26.1888 C410.5614,23.2528 412.9404,20.8758 415.8744,20.8758 C418.8084,20.8758 421.1874,23.2528 421.1874,26.1888 L421.1874,26.1888 Z" id="Stroke-19" stroke="#231F1F" stroke-width="4.5" stroke-linejoin="round" mask="url(#mask-2)"></path>
                    <path d="M402.3124,92 L425.3124,92" id="Stroke-20" stroke="#231F1F" stroke-width="4" stroke-linejoin="round" mask="url(#mask-2)"></path>
                    <path d="M402.3124,100 L425.3124,100" id="Stroke-21" stroke="#231F1F" stroke-width="4" stroke-linejoin="round" mask="url(#mask-2)"></path>
                    <path d="M414.3124,101 L414.3124,108" id="Stroke-22" stroke="#231F1F" stroke-width="4" stroke-linejoin="round" mask="url(#mask-2)"></path>
                    <path d="M456.3124,15 L456.3124,24" id="Stroke-23" stroke="#231F1F" stroke-width="4" stroke-linejoin="round" mask="url(#mask-2)"></path>
                    <path d="M456.3124,39 L456.3124,47" id="Stroke-24" stroke="#231F1F" stroke-width="4" stroke-linejoin="round" mask="url(#mask-2)"></path>
                    <path d="M438.3124,31 L446.3124,31" id="Stroke-25" stroke="#231F1F" stroke-width="4" stroke-linejoin="round" mask="url(#mask-2)"></path>
                    <path d="M464.3124,31 L471.3124,31" id="Stroke-26" stroke="#231F1F" stroke-width="4" stroke-linejoin="round" mask="url(#mask-2)"></path>
                    <path d="M444.8711,41.5666 L449.9221,36.5156" id="Stroke-27" stroke="#231F1F" stroke-width="4.5" stroke-linejoin="round" mask="url(#mask-2)"></path>
                    <path d="M461.9437,24.4924 L466.8787,19.5584" id="Stroke-28" stroke="#231F1F" stroke-width="4.5" stroke-linejoin="round" mask="url(#mask-2)"></path>
                    <path d="M444.8696,19.5589 L450.2906,24.9819" id="Stroke-29" stroke="#231F1F" stroke-width="4.5" stroke-linejoin="round" mask="url(#mask-2)"></path>
                    <path d="M461.7093,36.4002 L466.8783,41.5662" id="Stroke-30" stroke="#231F1F" stroke-width="4.5" stroke-linejoin="round" mask="url(#mask-2)"></path>
                    <path d="M198.3124,44 L198.3124,53" id="Stroke-31" stroke="#231F1F" stroke-width="4" stroke-linejoin="round" mask="url(#mask-2)"></path>
                    <path d="M198.3124,68 L198.3124,75" id="Stroke-32" stroke="#231F1F" stroke-width="4" stroke-linejoin="round" mask="url(#mask-2)"></path>
                    <path d="M180.3124,59 L188.3124,59" id="Stroke-33" stroke="#231F1F" stroke-width="4" stroke-linejoin="round" mask="url(#mask-2)"></path>
                    <path d="M206.3124,59 L213.3124,59" id="Stroke-34" stroke="#231F1F" stroke-width="4" stroke-linejoin="round" mask="url(#mask-2)"></path>
                    <path d="M186.8712,70.0666 L191.9222,65.0156" id="Stroke-35" stroke="#231F1F" stroke-width="4.5" stroke-linejoin="round" mask="url(#mask-2)"></path>
                    <path d="M203.9439,52.9924 L208.8789,48.0584" id="Stroke-36" stroke="#231F1F" stroke-width="4.5" stroke-linejoin="round" mask="url(#mask-2)"></path>
                    <path d="M186.8697,48.0589 L192.2907,53.4819" id="Stroke-37" stroke="#231F1F" stroke-width="4.5" stroke-linejoin="round" mask="url(#mask-2)"></path>
                    <path d="M203.7094,64.9002 L208.8784,70.0662" id="Stroke-38" stroke="#231F1F" stroke-width="4.5" stroke-linejoin="round" mask="url(#mask-2)"></path>
                    <path d="M504.3124,125 L504.3124,134" id="Stroke-39" stroke="#231F1F" stroke-width="4" stroke-linejoin="round" mask="url(#mask-2)"></path>
                    <path d="M504.3124,149 L504.3124,156" id="Stroke-40" stroke="#231F1F" stroke-width="4" stroke-linejoin="round" mask="url(#mask-2)"></path>
                    <path d="M486.3124,140 L494.3124,140" id="Stroke-41" stroke="#231F1F" stroke-width="4" stroke-linejoin="round" mask="url(#mask-2)"></path>
                    <path d="M512.3124,140 L519.3124,140" id="Stroke-42" stroke="#231F1F" stroke-width="4" stroke-linejoin="round" mask="url(#mask-2)"></path>
                    <path d="M492.871,151.0666 L497.922,146.0156" id="Stroke-43" stroke="#231F1F" stroke-width="4.5" stroke-linejoin="round" mask="url(#mask-2)"></path>
                    <path d="M509.9437,133.9924 L514.8787,129.0584" id="Stroke-44" stroke="#231F1F" stroke-width="4.5" stroke-linejoin="round" mask="url(#mask-2)"></path>
                    <path d="M492.8695,129.0589 L498.2905,134.4819" id="Stroke-45" stroke="#231F1F" stroke-width="4.5" stroke-linejoin="round" mask="url(#mask-2)"></path>
                    <path d="M509.7093,145.9002 L514.8783,151.0662" id="Stroke-46" stroke="#231F1F" stroke-width="4.5" stroke-linejoin="round" mask="url(#mask-2)"></path>
                    <path d="M376.3124,32 L376.3124,41" id="Stroke-47" stroke="#231F1F" stroke-width="4" stroke-linejoin="round" mask="url(#mask-2)"></path>
                    <path d="M376.3124,56 L376.3124,63" id="Stroke-48" stroke="#231F1F" stroke-width="4" stroke-linejoin="round" mask="url(#mask-2)"></path>
                    <path d="M359.3124,47 L366.3124,47" id="Stroke-49" stroke="#231F1F" stroke-width="4" stroke-linejoin="round" mask="url(#mask-2)"></path>
                    <path d="M384.3124,47 L392.3124,47" id="Stroke-50" stroke="#231F1F" stroke-width="4" stroke-linejoin="round" mask="url(#mask-2)"></path>
                    <path d="M365.3711,58.0666 L370.4221,53.0156" id="Stroke-51" stroke="#231F1F" stroke-width="4.5" stroke-linejoin="round" mask="url(#mask-2)"></path>
                    <path d="M382.4438,40.9924 L387.3788,36.0584" id="Stroke-52" stroke="#231F1F" stroke-width="4.5" stroke-linejoin="round" mask="url(#mask-2)"></path>
                    <path d="M365.3696,36.0589 L370.7906,41.4819" id="Stroke-53" stroke="#231F1F" stroke-width="4.5" stroke-linejoin="round" mask="url(#mask-2)"></path>
                    <path d="M382.2093,52.9002 L387.3783,58.0662" id="Stroke-54" stroke="#231F1F" stroke-width="4.5" stroke-linejoin="round" mask="url(#mask-2)"></path>
                    <polyline id="Stroke-55" stroke="#231F1F" stroke-width="4.5" stroke-linejoin="round" mask="url(#mask-2)" points="912.7214 126.595 863.2214 77.095 840.0034 100.313 783.7534 44.063"></polyline>
                    <polyline id="Stroke-56" stroke="#231F1F" stroke-width="4" stroke-linejoin="round" mask="url(#mask-2)" points="794.3124 44 783.3124 44 783.3124 56"></polyline>
                    <polygon id="Fill-57" fill="#FFFFFF" mask="url(#mask-2)" points="254.3124 41 240.6344 41 262.2564 10.108 283.8814 41 272.3124 41 272.3124 231 254.3124 231"></polygon>
                    <polyline id="Stroke-58" stroke="#231F1F" stroke-width="4" stroke-linejoin="round" mask="url(#mask-2)" points="255.3124 117 255.3124 41 242.1344 41 263.7574 10.108 285.3834 41 273.3124 41 273.3124 201"></polyline>
                    <path d="M74.2298,244.9456 L89.7958,244.9456 C98.9538,244.9456 104.2648,239.2696 104.2648,229.3786 C104.2648,219.8556 98.9538,214.3606 89.7958,214.3606 L74.2298,214.3606 L74.2298,244.9456 Z M91.9948,182.1296 C125.3268,182.1296 144.5548,198.7946 144.5548,228.0986 C144.5548,259.2306 125.3268,277.1796 91.9948,277.1796 L74.2298,277.1796 L74.2298,310.5086 L31.7418,310.5086 L31.7418,182.1296 L91.9948,182.1296 Z" id="Fill-59" fill="#562BEC" mask="url(#mask-2)"></path>
                    <path d="M219.4617,244.9456 C228.6187,244.9456 233.9287,239.2696 233.9287,229.3786 C233.9287,219.8556 228.6187,214.3606 219.4617,214.3606 L199.8657,214.3606 L199.8657,244.9456 L219.4617,244.9456 Z M215.7987,277.1796 L199.8657,277.1796 L199.8657,310.5086 L157.3777,310.5086 L157.3777,182.1296 L219.4617,182.1296 C254.2577,182.1296 274.2207,198.7946 274.2207,228.0986 C274.2207,246.7766 267.0777,260.6956 253.8907,268.7536 L279.1647,310.5086 L231.1827,310.5086 L215.7987,277.1796 Z" id="Fill-60" fill="#562BEC" mask="url(#mask-2)"></path>
                    <path d="M327.3328,246.4119 C327.3328,263.9909 340.1528,276.9949 354.8038,276.9949 C369.4538,276.9949 381.1748,263.9909 381.1748,246.4119 C381.1748,228.8289 369.4538,216.1939 354.8038,216.1939 C339.9688,216.1939 327.3328,228.8289 327.3328,246.4119 M424.7628,246.2279 C424.7628,284.3209 395.0938,312.3419 354.2548,312.3419 C313.4148,312.3419 283.7458,284.5039 283.7458,246.2279 C283.7458,208.1349 313.4148,180.8469 354.2548,180.8469 C395.0938,180.8469 424.7628,208.3189 424.7628,246.2279" id="Fill-61" fill="#562BEC" mask="url(#mask-2)"></path>
                    <path d="M554.0619,204.2889 L529.5199,233.4089 C521.8279,222.9699 510.2909,216.1939 500.4019,216.1939 C485.0179,216.1939 473.8469,228.4629 473.8469,245.4949 C473.8469,262.7109 485.0179,275.1619 500.4019,275.1619 C509.5589,275.1619 521.0959,269.4859 529.5199,260.5129 L554.0619,286.7029 C539.7769,302.2689 517.9829,312.3419 498.2029,312.3419 C458.8299,312.3419 430.2589,284.3209 430.2589,246.0439 C430.2589,208.3189 459.5609,180.8469 499.8529,180.8469 C519.4479,180.8469 540.8759,190.0049 554.0619,204.2889" id="Fill-62" fill="#562BEC" mask="url(#mask-2)"></path>
                    <polygon id="Fill-63" fill="#562BEC" mask="url(#mask-2)" points="605.1586 214.361 605.1586 230.111 665.2286 230.111 665.2286 262.343 605.1586 262.343 605.1586 278.278 672.9196 278.278 672.9196 310.509 562.6706 310.509 562.6706 182.13 671.2716 182.13 671.2716 214.361"></polygon>
                    <path d="M800.5701,195.4983 L785.1861,227.7303 C772.1831,220.5883 752.2211,212.7133 741.0511,212.7133 C736.2881,212.7133 733.1761,214.1783 733.1761,218.0263 C733.1761,234.1413 799.6541,224.0683 799.6541,270.5843 C799.6541,299.1533 774.5651,311.7923 745.6281,311.7923 C723.2851,311.7923 698.3801,304.2823 681.3481,291.2803 L697.0961,259.4143 C710.2831,270.4033 732.9921,279.3763 745.9941,279.3763 C752.2211,279.3763 756.2501,277.3613 756.2501,272.7823 C756.2501,256.1183 689.7721,267.1053 689.7721,222.0543 C689.7721,196.4153 711.3821,180.2973 744.7141,180.2973 C765.0421,180.2973 786.1021,186.3413 800.5701,195.4983" id="Fill-64" fill="#562BEC" mask="url(#mask-2)"></path>
                    <path d="M922.1755,195.4983 L906.7915,227.7303 C893.7895,220.5883 873.8265,212.7133 862.6555,212.7133 C857.8935,212.7133 854.7805,214.1783 854.7805,218.0263 C854.7805,234.1413 921.2595,224.0683 921.2595,270.5843 C921.2595,299.1533 896.1705,311.7923 867.2335,311.7923 C844.8905,311.7923 819.9855,304.2823 802.9535,291.2803 L818.7015,259.4143 C831.8885,270.4033 854.5975,279.3763 867.5995,279.3763 C873.8265,279.3763 877.8555,277.3613 877.8555,272.7823 C877.8555,256.1183 811.3775,267.1053 811.3775,222.0543 C811.3775,196.4153 832.9875,180.2973 866.3195,180.2973 C886.6475,180.2973 907.7075,186.3413 922.1755,195.4983" id="Fill-65" fill="#562BEC" mask="url(#mask-2)"></path>
                    <path d="M384.8124,247.5003 C384.8124,230.3103 370.8774,216.3753 353.6874,216.3753 C336.4974,216.3753 322.3124,230.3103 322.3124,247.5003 C322.3124,260.8593 331.3124,272.2183 342.3124,276.6333 L342.3124,287.0003 L365.3124,287.0003 L365.3124,276.3593 C376.3124,271.7503 384.8124,260.5773 384.8124,247.5003" id="Fill-66" fill="#FFFFFF" mask="url(#mask-2)"></path>
                    <polygon id="Stroke-67" stroke="#231F1F" stroke-width="4" stroke-linejoin="round" mask="url(#mask-2)" points="342.312 301 364.312 301 364.312 287 342.312 287"></polygon>
                    <path d="M354.3124,288 L354.3124,248" id="Stroke-68" stroke="#231F1F" stroke-width="4" stroke-linejoin="round" mask="url(#mask-2)"></path>
                    <path d="M359.6875,242.1888 C359.6875,245.1228 357.3085,247.4998 354.3745,247.4998 C351.4405,247.4998 349.0615,245.1228 349.0615,242.1888 C349.0615,239.2528 351.4405,236.8758 354.3745,236.8758 C357.3085,236.8758 359.6875,239.2528 359.6875,242.1888 L359.6875,242.1888 Z" id="Stroke-69" stroke="#231F1F" stroke-width="4.5" stroke-linejoin="round" mask="url(#mask-2)"></path>
                    <path d="M341.3124,308 L363.3124,308" id="Stroke-70" stroke="#231F1F" stroke-width="4" stroke-linejoin="round" mask="url(#mask-2)"></path>
                    <path d="M341.3124,316 L363.3124,316" id="Stroke-71" stroke="#231F1F" stroke-width="4" stroke-linejoin="round" mask="url(#mask-2)"></path>
                    <path d="M352.3124,317 L352.3124,324" id="Stroke-72" stroke="#231F1F" stroke-width="4" stroke-linejoin="round" mask="url(#mask-2)"></path>
                    <path d="M382.862,290.5785 L399.949,273.6245 L390.34,265.1815 C390.516,264.8555 393.021,260.0005 393.133,260.0005 L403.312,260.0005 L403.312,236.0005 L393.133,236.0005 C393.021,232.0005 390.63,228.6285 390.455,228.2945 L400.178,217.9485 L383.319,200.7785 L373.184,210.3435 C372.852,210.1695 369.312,207.6225 366.312,207.5095 L366.312,196.0005 L342.312,196.0005 L342.312,207.5095 C342.312,207.6225 336.674,210.0135 336.344,210.1875 L326.868,200.4655 L310.131,217.3245 L319.912,228.2945 C319.739,228.6285 317.41,232.0005 317.297,236.0005 L301.312,236.0005 L301.312,260.0005 L317.297,260.0005 C317.41,260.0005 319.799,264.8085 319.974,265.1345 L310.253,274.1945 L327.112,290.7225" id="Stroke-73" stroke="#231F1F" stroke-width="4" stroke-linejoin="round" mask="url(#mask-2)"></path>
                    <polygon id="Fill-74" fill="#FFCD28" mask="url(#mask-2)" points="157.4344 310.9895 152.7354 288.7885 147.4324 294.0925 137.8864 284.5465 130.4624 291.9695 140.0074 301.5175 135.2344 306.2905"></polygon>
                    <path d="M797.4339,157 L807.3119,157 L807.3119,136 L797.4339,136 C797.3369,133 795.2779,129.61 795.1269,129.322 L803.5009,120.391 L788.9799,105.591 L780.2399,113.825 C779.9559,113.675 777.3119,111.476 774.3119,111.378 L774.3119,101 L753.3119,101 L753.3119,111.378 C753.3119,111.476 748.6299,113.535 748.3459,113.685 L740.2709,105.311 L725.8989,119.833 L734.3449,129.322 C734.1959,129.61 732.2119,133 732.1149,136 L718.3119,136 L718.3119,157 L732.1149,157 C732.2119,157 734.2699,160.936 734.4209,161.217 L726.0479,168.918 L740.5689,183.102 L748.3459,174.561 C748.6299,174.71 753.3119,176.602 753.3119,176.698 L753.3119,190 L774.3119,190 L774.3119,176.698 C777.3119,176.602 779.9559,174.542 780.2399,174.393 L788.7969,182.766 L803.4089,168.243 L795.0809,161.217 C795.2319,160.936 797.3369,157 797.4339,157 L797.4339,157 Z" id="Stroke-75" stroke="#231F1F" stroke-width="4" stroke-linejoin="round" mask="url(#mask-2)"></path>
                    <path d="M773.8118,145.2513 C773.8118,151.4633 768.7758,156.5013 762.5618,156.5013 C756.3478,156.5013 751.3118,151.4633 751.3118,145.2513 C751.3118,139.0373 756.3478,134.0013 762.5618,134.0013 C768.7758,134.0013 773.8118,139.0373 773.8118,145.2513" id="Fill-76" fill="#C8CBCC" mask="url(#mask-2)"></path>
                    <path d="M207.9342,163 L217.3122,163 L217.3122,142 L207.9342,142 C207.8372,139 205.7782,135.61 205.6272,135.322 L214.0012,126.391 L199.4802,111.591 L190.4902,119.825 C190.2062,119.675 187.3122,117.476 184.3122,117.378 L184.3122,107 L163.3122,107 L163.3122,117.378 C163.3122,117.476 158.8802,119.535 158.5962,119.685 L150.6462,111.311 L136.3362,125.833 L144.8142,135.322 C144.6652,135.61 142.7122,139 142.6152,142 L129.3122,142 L129.3122,163 L142.6152,163 C142.7122,163 144.7702,166.936 144.9212,167.217 L136.5482,174.918 L151.0692,189.102 L158.5962,180.561 C158.8802,180.71 163.3122,182.602 163.3122,182.698 L163.3122,196 L184.3122,196 L184.3122,182.698 C187.3122,182.602 190.2062,180.542 190.4902,180.393 L199.1722,188.766 L213.8472,174.243 L205.5502,167.217 C205.7002,166.936 207.8372,163 207.9342,163 L207.9342,163 Z" id="Stroke-77" stroke="#231F1F" stroke-width="4" stroke-linejoin="round" mask="url(#mask-2)"></path>
                    <path d="M184.312,151.2513 C184.312,157.4633 179.276,162.5013 173.062,162.5013 C166.848,162.5013 161.812,157.4633 161.812,151.2513 C161.812,145.0373 166.848,140.0013 173.062,140.0013 C179.276,140.0013 184.312,145.0373 184.312,151.2513" id="Fill-78" fill="#C8CBCC" mask="url(#mask-2)"></path>
                    <path d="M164.3124,311 L288.3124,311" id="Stroke-79" stroke="#231F1F" stroke-width="4" stroke-linejoin="round" mask="url(#mask-2)"></path>
                    <path d="M947.0623,234.0003 C947.0623,216.8103 933.2523,202.8753 916.0623,202.8753 C898.8723,202.8753 884.9993,216.8103 884.9993,234.0003 C884.9993,247.3593 893.3123,258.7183 905.3123,263.1333 L905.3123,273.0003 L927.3123,273.0003 L927.3123,262.8593 C939.3123,258.2503 947.0623,247.0773 947.0623,234.0003" id="Fill-80" fill="#FFCD28" mask="url(#mask-2)"></path>
                    <polygon id="Stroke-81" stroke="#231F1F" stroke-width="4" stroke-linejoin="round" mask="url(#mask-2)" points="904.312 287 927.312 287 927.312 274 904.312 274"></polygon>
                    <path d="M916.3124,275 L916.3124,234" id="Stroke-82" stroke="#231F1F" stroke-width="4" stroke-linejoin="round" mask="url(#mask-2)"></path>
                    <path d="M922.1872,228.6888 C922.1872,231.6228 919.8082,233.9998 916.8742,233.9998 C913.9402,233.9998 911.5612,231.6228 911.5612,228.6888 C911.5612,225.7528 913.9402,223.3758 916.8742,223.3758 C919.8082,223.3758 922.1872,225.7528 922.1872,228.6888 L922.1872,228.6888 Z" id="Stroke-83" stroke="#231F1F" stroke-width="4.5" stroke-linejoin="round" mask="url(#mask-2)"></path>
                    <path d="M903.3124,295 L926.3124,295" id="Stroke-84" stroke="#231F1F" stroke-width="4" stroke-linejoin="round" mask="url(#mask-2)"></path>
                    <path d="M903.3124,302 L926.3124,302" id="Stroke-85" stroke="#231F1F" stroke-width="4" stroke-linejoin="round" mask="url(#mask-2)"></path>
                    <path d="M915.3124,303 L915.3124,311" id="Stroke-86" stroke="#231F1F" stroke-width="4" stroke-linejoin="round" mask="url(#mask-2)"></path>
                    <path d="M62.0625,234.0003 C62.0625,216.8103 48.2525,202.8753 31.0625,202.8753 C13.8725,202.8753 -0.0005,216.8103 -0.0005,234.0003 C-0.0005,247.3593 8.3125,258.7183 20.3125,263.1333 L20.3125,273.0003 L42.3125,273.0003 L42.3125,262.8593 C54.3125,258.2503 62.0625,247.0773 62.0625,234.0003" id="Fill-87" fill="#FFCD28" mask="url(#mask-2)"></path>
                    <polygon id="Stroke-88" stroke="#231F1F" stroke-width="4" stroke-linejoin="round" mask="url(#mask-2)" points="19.312 287 42.312 287 42.312 274 19.312 274"></polygon>
                    <path d="M31.3124,275 L31.3124,234" id="Stroke-89" stroke="#231F1F" stroke-width="4" stroke-linejoin="round" mask="url(#mask-2)"></path>
                    <path d="M37.1876,228.6888 C37.1876,231.6228 34.8086,233.9998 31.8746,233.9998 C28.9406,233.9998 26.5616,231.6228 26.5616,228.6888 C26.5616,225.7528 28.9406,223.3758 31.8746,223.3758 C34.8086,223.3758 37.1876,225.7528 37.1876,228.6888 L37.1876,228.6888 Z" id="Stroke-90" stroke="#231F1F" stroke-width="4.5" stroke-linejoin="round" mask="url(#mask-2)"></path>
                    <path d="M18.3124,295 L41.3124,295" id="Stroke-91" stroke="#231F1F" stroke-width="4" stroke-linejoin="round" mask="url(#mask-2)"></path>
                    <path d="M18.3124,302 L41.3124,302" id="Stroke-92" stroke="#231F1F" stroke-width="4" stroke-linejoin="round" mask="url(#mask-2)"></path>
                    <path d="M30.3124,303 L30.3124,311" id="Stroke-93" stroke="#231F1F" stroke-width="4" stroke-linejoin="round" mask="url(#mask-2)"></path>
                    <path d="M27.3124,180 L27.3124,189" id="Stroke-94" stroke="#231F1F" stroke-width="4" stroke-linejoin="round" mask="url(#mask-2)"></path>
                    <path d="M27.3124,204 L27.3124,212" id="Stroke-95" stroke="#231F1F" stroke-width="4" stroke-linejoin="round" mask="url(#mask-2)"></path>
                    <path d="M9.3124,196 L17.3124,196" id="Stroke-96" stroke="#231F1F" stroke-width="4" stroke-linejoin="round" mask="url(#mask-2)"></path>
                    <path d="M35.3124,196 L42.3124,196" id="Stroke-97" stroke="#231F1F" stroke-width="4" stroke-linejoin="round" mask="url(#mask-2)"></path>
                    <path d="M15.8713,206.5666 L20.9223,201.5156" id="Stroke-98" stroke="#231F1F" stroke-width="4.5" stroke-linejoin="round" mask="url(#mask-2)"></path>
                    <path d="M32.944,189.4924 L37.879,184.5584" id="Stroke-99" stroke="#231F1F" stroke-width="4.5" stroke-linejoin="round" mask="url(#mask-2)"></path>
                    <path d="M15.8698,184.5589 L21.2908,189.9819" id="Stroke-100" stroke="#231F1F" stroke-width="4.5" stroke-linejoin="round" mask="url(#mask-2)"></path>
                    <path d="M32.7095,201.4002 L37.8785,206.5662" id="Stroke-101" stroke="#231F1F" stroke-width="4.5" stroke-linejoin="round" mask="url(#mask-2)"></path>
                    <path d="M79.3124,231 L79.3124,240" id="Stroke-102" stroke="#231F1F" stroke-width="4" stroke-linejoin="round" mask="url(#mask-2)"></path>
                    <path d="M79.3124,255 L79.3124,263" id="Stroke-103" stroke="#231F1F" stroke-width="4" stroke-linejoin="round" mask="url(#mask-2)"></path>
                    <path d="M62.3124,247 L69.3124,247" id="Stroke-104" stroke="#231F1F" stroke-width="4" stroke-linejoin="round" mask="url(#mask-2)"></path>
                    <path d="M87.3124,247 L95.3124,247" id="Stroke-105" stroke="#231F1F" stroke-width="4" stroke-linejoin="round" mask="url(#mask-2)"></path>
                    <path d="M68.3712,257.5666 L73.4222,252.5156" id="Stroke-106" stroke="#231F1F" stroke-width="4.5" stroke-linejoin="round" mask="url(#mask-2)"></path>
                    <path d="M85.4439,240.4924 L90.3789,235.5584" id="Stroke-107" stroke="#231F1F" stroke-width="4.5" stroke-linejoin="round" mask="url(#mask-2)"></path>
                    <path d="M68.3697,235.5589 L73.7907,240.9819" id="Stroke-108" stroke="#231F1F" stroke-width="4.5" stroke-linejoin="round" mask="url(#mask-2)"></path>
                    <path d="M85.2095,252.4002 L90.3785,257.5662" id="Stroke-109" stroke="#231F1F" stroke-width="4.5" stroke-linejoin="round" mask="url(#mask-2)"></path>
                    <path d="M915.3124,180 L915.3124,189" id="Stroke-110" stroke="#231F1F" stroke-width="4" stroke-linejoin="round" mask="url(#mask-2)"></path>
                    <path d="M915.3124,204 L915.3124,212" id="Stroke-111" stroke="#231F1F" stroke-width="4" stroke-linejoin="round" mask="url(#mask-2)"></path>
                    <path d="M897.3124,196 L905.3124,196" id="Stroke-112" stroke="#231F1F" stroke-width="4" stroke-linejoin="round" mask="url(#mask-2)"></path>
                    <path d="M923.3124,196 L930.3124,196" id="Stroke-113" stroke="#231F1F" stroke-width="4" stroke-linejoin="round" mask="url(#mask-2)"></path>
                    <path d="M903.8708,206.5666 L908.9218,201.5156" id="Stroke-114" stroke="#231F1F" stroke-width="4.5" stroke-linejoin="round" mask="url(#mask-2)"></path>
                    <path d="M920.9435,189.4924 L925.8785,184.5584" id="Stroke-115" stroke="#231F1F" stroke-width="4.5" stroke-linejoin="round" mask="url(#mask-2)"></path>
                    <path d="M903.8693,184.5589 L909.2903,189.9819" id="Stroke-116" stroke="#231F1F" stroke-width="4.5" stroke-linejoin="round" mask="url(#mask-2)"></path>
                    <path d="M920.7091,201.4002 L925.8781,206.5662" id="Stroke-117" stroke="#231F1F" stroke-width="4.5" stroke-linejoin="round" mask="url(#mask-2)"></path>
                    <path d="M873.3124,224 L873.3124,233" id="Stroke-118" stroke="#231F1F" stroke-width="4" stroke-linejoin="round" mask="url(#mask-2)"></path>
                    <path d="M873.3124,248 L873.3124,255" id="Stroke-119" stroke="#231F1F" stroke-width="4" stroke-linejoin="round" mask="url(#mask-2)"></path>
                    <path d="M855.3124,239 L863.3124,239" id="Stroke-120" stroke="#231F1F" stroke-width="4" stroke-linejoin="round" mask="url(#mask-2)"></path>
                    <path d="M881.3124,239 L888.3124,239" id="Stroke-121" stroke="#231F1F" stroke-width="4" stroke-linejoin="round" mask="url(#mask-2)"></path>
                    <path d="M861.8708,250.0666 L866.9218,245.0156" id="Stroke-122" stroke="#231F1F" stroke-width="4.5" stroke-linejoin="round" mask="url(#mask-2)"></path>
                    <path d="M878.9435,232.9924 L883.8785,228.0584" id="Stroke-123" stroke="#231F1F" stroke-width="4.5" stroke-linejoin="round" mask="url(#mask-2)"></path>
                    <path d="M861.8693,228.0589 L867.2903,233.4819" id="Stroke-124" stroke="#231F1F" stroke-width="4.5" stroke-linejoin="round" mask="url(#mask-2)"></path>
                    <path d="M878.7091,244.9002 L883.8781,250.0662" id="Stroke-125" stroke="#231F1F" stroke-width="4.5" stroke-linejoin="round" mask="url(#mask-2)"></path>
                    <path d="M955.3124,234 L955.3124,243" id="Stroke-126" stroke="#231F1F" stroke-width="4" stroke-linejoin="round" mask="url(#mask-2)"></path>
                    <path d="M955.3124,258 L955.3124,266" id="Stroke-127" stroke="#231F1F" stroke-width="4" stroke-linejoin="round" mask="url(#mask-2)"></path>
                    <path d="M938.3124,250 L945.3124,250" id="Stroke-128" stroke="#231F1F" stroke-width="4" stroke-linejoin="round" mask="url(#mask-2)"></path>
                    <path d="M963.3124,250 L971.3124,250" id="Stroke-129" stroke="#231F1F" stroke-width="4" stroke-linejoin="round" mask="url(#mask-2)"></path>
                    <path d="M944.3708,260.5666 L949.4218,255.5156" id="Stroke-130" stroke="#231F1F" stroke-width="4.5" stroke-linejoin="round" mask="url(#mask-2)"></path>
                    <path d="M961.4435,243.4924 L966.3785,238.5584" id="Stroke-131" stroke="#231F1F" stroke-width="4.5" stroke-linejoin="round" mask="url(#mask-2)"></path>
                    <path d="M944.3693,238.5589 L949.7903,243.9819" id="Stroke-132" stroke="#231F1F" stroke-width="4.5" stroke-linejoin="round" mask="url(#mask-2)"></path>
                    <path d="M961.209,255.4002 L966.378,260.5662" id="Stroke-133" stroke="#231F1F" stroke-width="4.5" stroke-linejoin="round" mask="url(#mask-2)"></path>
                    <polygon id="Fill-134" fill="#FFFFFF" mask="url(#mask-2)" points="548.3124 116 534.6334 116 556.2564 85.108 577.8814 116 566.3124 116 566.3124 306 548.3124 306"></polygon>
                    <polyline id="Stroke-135" stroke="#231F1F" stroke-width="4" stroke-linejoin="round" mask="url(#mask-2)" points="549.3124 192 549.3124 116 536.1334 116 557.7574 85.108 579.3834 116 567.3124 116 567.3124 306"></polyline>
                    <polygon id="Fill-136" fill="#FFCD28" mask="url(#mask-2)" points="477.312 321 623.312 321 623.312 302 477.312 302"></polygon>
                    <polygon id="Fill-137" fill="#FFFFFF" mask="url(#mask-2)" points="651.8124 310.8753 623.3124 301.5003 623.3124 321.0003"></polygon>
                    <polygon id="Fill-138" fill="#FFFFFF" mask="url(#mask-2)" points="449.312 321 477.312 321 477.312 302 449.312 302"></polygon>
                    <path d="M477.3124,302 L477.3124,321" id="Stroke-139" stroke="#231F1F" stroke-width="4" stroke-linejoin="round" mask="url(#mask-2)"></path>
                    <path d="M622.3124,302 L622.3124,321" id="Stroke-140" stroke="#231F1F" stroke-width="4" stroke-linejoin="round" mask="url(#mask-2)"></path>
                    <path d="M621.3124,311 L476.3124,311" id="Stroke-141" stroke="#231F1F" stroke-width="4" stroke-linejoin="round" mask="url(#mask-2)"></path>
                    <path d="M444.3124,167 L438.2014,167 C434.6314,167 434.6174,158.125 431.0474,158.125 C427.4804,158.125 427.4624,167.188 423.8974,167.188 C420.3264,167.188 420.2934,158.094 416.7244,158.094 C413.1544,158.094 413.0894,167 409.5204,167 L402.3124,167" id="Stroke-142" stroke="#231F1F" stroke-width="4" stroke-linejoin="round" mask="url(#mask-2)"></path>
                    <path d="M783.3124,313 L777.2014,313 C773.6314,313 773.6174,303.875 770.0474,303.875 C766.4804,303.875 766.4624,312.813 762.8974,312.813 C759.3254,312.813 759.2934,303.906 755.7234,303.906 C752.1544,303.906 752.0894,313 748.5194,313 L741.3124,313" id="Stroke-143" stroke="#231F1F" stroke-width="4" stroke-linejoin="round" mask="url(#mask-2)"></path>
                    <path d="M92.3124,155 L85.7014,155 C82.1324,155 82.1174,146.125 78.5474,146.125 C74.9804,146.125 74.9634,155.188 71.3974,155.188 C67.8264,155.188 67.7944,146.094 64.2244,146.094 C60.6544,146.094 60.5904,155 57.0204,155 L50.3124,155" id="Stroke-144" stroke="#231F1F" stroke-width="4" stroke-linejoin="round" mask="url(#mask-2)"></path>
                    <path d="M876.3124,149 L870.2014,149 C866.6314,149 866.6164,140.125 863.0474,140.125 C859.4804,140.125 859.4624,149.188 855.8974,149.188 C852.3254,149.188 852.2934,140.094 848.7234,140.094 C845.1544,140.094 845.0894,149 841.5194,149 L834.3124,149" id="Stroke-145" stroke="#231F1F" stroke-width="4" stroke-linejoin="round" mask="url(#mask-2)"></path>
                    <path d="M555.3124,28 L549.2014,28 C545.6314,28 545.6174,18.875 542.0474,18.875 C538.4804,18.875 538.4624,27.813 534.8974,27.813 C531.3264,27.813 531.2934,18.906 527.7244,18.906 C524.1544,18.906 524.0894,28 520.5204,28 L513.3124,28" id="Stroke-146" stroke="#231F1F" stroke-width="4" stroke-linejoin="round" mask="url(#mask-2)"></path>
                    <path d="M228.0625,245.0628 C228.0625,253.8648 220.9265,261.0008 212.1245,261.0008 C203.3235,261.0008 196.1875,253.8648 196.1875,245.0628 C196.1875,236.2608 203.3235,229.1248 212.1245,229.1248 C220.9265,229.1248 228.0625,236.2608 228.0625,245.0628" id="Fill-147" fill="#FFCD28" mask="url(#mask-2)"></path>
                    <polyline id="Stroke-148" stroke="#231F1F" stroke-width="4.5" stroke-linejoin="round" mask="url(#mask-2)" points="206.6502 245.1844 210.5442 249.0774 219.4242 240.1964"></polyline>
                    <path d="M633.0623,92.0628 C633.0623,100.8648 625.9253,108.0008 617.1253,108.0008 C608.3243,108.0008 601.1873,100.8648 601.1873,92.0628 C601.1873,83.2608 608.3243,76.1248 617.1253,76.1248 C625.9253,76.1248 633.0623,83.2608 633.0623,92.0628" id="Fill-149" fill="#C8CBCC" mask="url(#mask-2)"></path>
                    <polyline id="Stroke-150" stroke="#231F1F" stroke-width="4.5" stroke-linejoin="round" mask="url(#mask-2)" points="611.6492 92.1844 615.5432 96.0774 624.4242 87.1964"></polyline>
                    <path d="M837.0622,263.0628 C837.0622,271.8648 829.9252,279.0008 821.1242,279.0008 C812.3242,279.0008 805.1872,271.8648 805.1872,263.0628 C805.1872,254.2608 812.3242,247.1248 821.1242,247.1248 C829.9252,247.1248 837.0622,254.2608 837.0622,263.0628" id="Fill-151" fill="#FFCD28" mask="url(#mask-2)"></path>
                    <polyline id="Stroke-152" stroke="#231F1F" stroke-width="4.5" stroke-linejoin="round" mask="url(#mask-2)" points="815.6491 263.1844 819.5431 267.0774 828.4241 258.1964"></polyline>
                    <path d="M474.3124,240 L474.3124,249" id="Stroke-153" stroke="#231F1F" stroke-width="4" stroke-linejoin="round" mask="url(#mask-2)"></path>
                    <path d="M474.3124,264 L474.3124,272" id="Stroke-154" stroke="#231F1F" stroke-width="4" stroke-linejoin="round" mask="url(#mask-2)"></path>
                    <path d="M456.3124,256 L464.3124,256" id="Stroke-155" stroke="#231F1F" stroke-width="4" stroke-linejoin="round" mask="url(#mask-2)"></path>
                    <path d="M482.3124,256 L489.3124,256" id="Stroke-156" stroke="#231F1F" stroke-width="4" stroke-linejoin="round" mask="url(#mask-2)"></path>
                    <path d="M462.871,266.5666 L467.922,261.5156" id="Stroke-157" stroke="#231F1F" stroke-width="4.5" stroke-linejoin="round" mask="url(#mask-2)"></path>
                    <path d="M479.9437,249.4924 L484.8787,244.5584" id="Stroke-158" stroke="#231F1F" stroke-width="4.5" stroke-linejoin="round" mask="url(#mask-2)"></path>
                    <path d="M462.8695,244.5589 L468.2905,249.9819" id="Stroke-159" stroke="#231F1F" stroke-width="4.5" stroke-linejoin="round" mask="url(#mask-2)"></path>
                    <path d="M479.7093,261.4002 L484.8783,266.5662" id="Stroke-160" stroke="#231F1F" stroke-width="4.5" stroke-linejoin="round" mask="url(#mask-2)"></path>
                    <path d="M670.3124,230 L670.3124,239" id="Stroke-161" stroke="#231F1F" stroke-width="4" stroke-linejoin="round" mask="url(#mask-2)"></path>
                    <path d="M670.3124,254 L670.3124,261" id="Stroke-162" stroke="#231F1F" stroke-width="4" stroke-linejoin="round" mask="url(#mask-2)"></path>
                    <path d="M653.3124,245 L660.3124,245" id="Stroke-163" stroke="#231F1F" stroke-width="4" stroke-linejoin="round" mask="url(#mask-2)"></path>
                    <path d="M678.3124,245 L686.3124,245" id="Stroke-164" stroke="#231F1F" stroke-width="4" stroke-linejoin="round" mask="url(#mask-2)"></path>
                    <path d="M659.3709,256.0666 L664.4219,251.0156" id="Stroke-165" stroke="#231F1F" stroke-width="4.5" stroke-linejoin="round" mask="url(#mask-2)"></path>
                    <path d="M676.4436,238.9924 L681.3786,234.0584" id="Stroke-166" stroke="#231F1F" stroke-width="4.5" stroke-linejoin="round" mask="url(#mask-2)"></path>
                    <path d="M659.3694,234.0589 L664.7904,239.4819" id="Stroke-167" stroke="#231F1F" stroke-width="4.5" stroke-linejoin="round" mask="url(#mask-2)"></path>
                    <path d="M676.2092,250.9002 L681.3782,256.0662" id="Stroke-168" stroke="#231F1F" stroke-width="4.5" stroke-linejoin="round" mask="url(#mask-2)"></path>
                    <path d="M318.3124,119 L318.3124,128" id="Stroke-169" stroke="#231F1F" stroke-width="4" stroke-linejoin="round" mask="url(#mask-2)"></path>
                    <path d="M318.3124,143 L318.3124,150" id="Stroke-170" stroke="#231F1F" stroke-width="4" stroke-linejoin="round" mask="url(#mask-2)"></path>
                    <path d="M300.3124,134 L308.3124,134" id="Stroke-171" stroke="#231F1F" stroke-width="4" stroke-linejoin="round" mask="url(#mask-2)"></path>
                    <path d="M326.3124,134 L333.3124,134" id="Stroke-172" stroke="#231F1F" stroke-width="4" stroke-linejoin="round" mask="url(#mask-2)"></path>
                    <path d="M306.8711,145.0666 L311.9221,140.0156" id="Stroke-173" stroke="#231F1F" stroke-width="4.5" stroke-linejoin="round" mask="url(#mask-2)"></path>
                    <path d="M323.9438,127.9924 L328.8788,123.0584" id="Stroke-174" stroke="#231F1F" stroke-width="4.5" stroke-linejoin="round" mask="url(#mask-2)"></path>
                    <path d="M306.8696,123.0589 L312.2906,128.4819" id="Stroke-175" stroke="#231F1F" stroke-width="4.5" stroke-linejoin="round" mask="url(#mask-2)"></path>
                    <path d="M323.7094,139.9002 L328.8784,145.0662" id="Stroke-176" stroke="#231F1F" stroke-width="4.5" stroke-linejoin="round" mask="url(#mask-2)"></path>
                </g>
            </g>
        </g>
    </g>
</svg>