<?xml version="1.0" encoding="UTF-8"?>
<svg width="51px" height="27px" viewBox="0 0 51 27" version="1.1" xmlns="http://www.w3.org/2000/svg" xmlns:xlink="http://www.w3.org/1999/xlink">
    <!-- Generator: Sketch 3.8.3 (29802) - http://www.bohemiancoding.com/sketch -->
    <title>logo</title>
    <desc>Created with Sketch.</desc>
    <defs></defs>
    <g id="Logo" stroke="none" stroke-width="1" fill="none" fill-rule="evenodd">
        <g id="Artboard-1" transform="translate(-205.000000, -134.000000)">
            <g id="logo" transform="translate(205.000000, 134.000000)">
                <path d="M25.566,26.1547 C24.902,26.1547 23.792,25.9037 23.299,25.4417 L5.152,8.8447 L5.152,19.8567 C5.152,21.3107 4.105,22.4897 2.652,22.4897 C1.197,22.4897 0.152,21.3107 0.152,19.8567 L0.152,2.7627 C0.152,1.7127 1.109,0.7627 2.072,0.3467 C3.036,-0.0703 4.321,0.1247 5.086,0.8427 L24.809,19.2787 C26,17.2297 27.815,14.3977 30,11.5447 C35.799,3.9747 41.526,0.1367 46.98,0.1367 C48.434,0.1367 49.623,1.3157 49.623,2.7687 C49.623,4.2237 48.45,5.4017 46.996,5.4017 C43.333,5.4017 38.932,8.6127 34.266,14.6857 C30.477,19.6167 27.946,24.6487 27.92,24.6997 C27.548,25.4427 26.847,25.9677 26.028,26.1137 C25.874,26.1407 25.72,26.1547 25.566,26.1547" id="Fill-3" fill="#242424"></path>
                <path d="M47.152,22.4893 C45.699,22.4893 44.152,21.3103 44.152,19.8563 L44.152,9.1153 C44.152,7.6613 45.699,6.4833 47.152,6.4833 C48.607,6.4833 50.152,7.6613 50.152,9.1153 L50.152,19.8563 C50.152,21.3103 48.607,22.4893 47.152,22.4893" id="Fill-5" fill="#FE2851"></path>
            </g>
        </g>
    </g>
</svg>